<mxfile host="65bd71144e">
    <diagram id="EQRQ3IdOEyXmHRYxrw7s" name="High Level Model">
        <mxGraphModel dx="1420" dy="788" grid="1" gridSize="10" guides="1" tooltips="1" connect="1" arrows="1" fold="1" page="1" pageScale="1" pageWidth="850" pageHeight="1100" math="0" shadow="0">
            <root>
                <mxCell id="0"/>
                <mxCell id="1" parent="0"/>
                <mxCell id="ahVJ65kF15WfOiXEWKMr-1" value="Alias" style="ellipse;whiteSpace=wrap;html=1;aspect=fixed;labelBorderColor=none;fillColor=#ffe6cc;strokeColor=#d79b00;" parent="1" vertex="1">
                    <mxGeometry x="160" y="160" width="80" height="80" as="geometry"/>
                </mxCell>
                <mxCell id="ahVJ65kF15WfOiXEWKMr-2" value="Player" style="ellipse;whiteSpace=wrap;html=1;aspect=fixed;labelBorderColor=none;fillColor=#e1d5e7;strokeColor=#9673a6;" parent="1" vertex="1">
                    <mxGeometry x="280" y="160" width="80" height="80" as="geometry"/>
                </mxCell>
                <mxCell id="ahVJ65kF15WfOiXEWKMr-6" value="" style="endArrow=none;html=1;rounded=0;exitX=1;exitY=0.5;exitDx=0;exitDy=0;entryX=0;entryY=0.5;entryDx=0;entryDy=0;" parent="1" source="ahVJ65kF15WfOiXEWKMr-1" target="ahVJ65kF15WfOiXEWKMr-2" edge="1">
                    <mxGeometry relative="1" as="geometry">
                        <mxPoint x="340" y="400" as="sourcePoint"/>
                        <mxPoint x="500" y="400" as="targetPoint"/>
                    </mxGeometry>
                </mxCell>
            </root>
        </mxGraphModel>
    </diagram>
    <diagram id="Z3fM4L8KaYH_9EWf1bJr" name="Alias Tables">
        <mxGraphModel dx="2270" dy="788" grid="1" gridSize="10" guides="1" tooltips="1" connect="1" arrows="1" fold="1" page="1" pageScale="1" pageWidth="850" pageHeight="1100" math="0" shadow="0">
            <root>
                <mxCell id="0"/>
                <mxCell id="1" parent="0"/>
                <mxCell id="254" value="Alias" style="swimlane;whiteSpace=wrap;html=1;labelBorderColor=none;swimlaneFillColor=default;fillColor=#ffe6cc;strokeColor=#d79b00;" parent="1" vertex="1">
                    <mxGeometry x="-800" y="40" width="680" height="450" as="geometry"/>
                </mxCell>
                <mxCell id="354" value="Player Alias Set" style="swimlane;childLayout=stackLayout;horizontal=1;startSize=30;horizontalStack=0;rounded=1;fontSize=14;fontStyle=0;strokeWidth=2;resizeParent=0;resizeLast=1;shadow=0;dashed=0;align=center;labelBorderColor=none;fillColor=#ffe6cc;strokeColor=#d79b00;" parent="254" vertex="1">
                    <mxGeometry x="490" y="43.5" width="160" height="83" as="geometry"/>
                </mxCell>
                <mxCell id="355" value="alias_set_id (PK)&#10;player_id (PK)" style="align=left;strokeColor=none;fillColor=none;spacingLeft=4;fontSize=12;verticalAlign=top;resizable=0;rotatable=0;part=1;labelBorderColor=none;" parent="354" vertex="1">
                    <mxGeometry y="30" width="160" height="53" as="geometry"/>
                </mxCell>
                <mxCell id="429" style="align=left;strokeColor=none;fillColor=none;spacingLeft=4;fontSize=12;verticalAlign=top;resizable=0;rotatable=0;part=1;labelBorderColor=none;" parent="354" vertex="1">
                    <mxGeometry y="83" width="160" as="geometry"/>
                </mxCell>
                <mxCell id="430" style="align=left;strokeColor=none;fillColor=none;spacingLeft=4;fontSize=12;verticalAlign=top;resizable=0;rotatable=0;part=1;labelBorderColor=none;" parent="354" vertex="1">
                    <mxGeometry y="83" width="160" as="geometry"/>
                </mxCell>
                <mxCell id="431" style="align=left;strokeColor=none;fillColor=none;spacingLeft=4;fontSize=12;verticalAlign=top;resizable=0;rotatable=0;part=1;labelBorderColor=none;" parent="354" vertex="1">
                    <mxGeometry y="83" width="160" as="geometry"/>
                </mxCell>
                <mxCell id="432" style="align=left;strokeColor=none;fillColor=none;spacingLeft=4;fontSize=12;verticalAlign=top;resizable=0;rotatable=0;part=1;labelBorderColor=none;" parent="354" vertex="1">
                    <mxGeometry y="83" width="160" as="geometry"/>
                </mxCell>
                <mxCell id="361" value="Proper Name" style="swimlane;childLayout=stackLayout;horizontal=1;startSize=30;horizontalStack=0;rounded=1;fontSize=14;fontStyle=0;strokeWidth=2;resizeParent=0;resizeLast=1;shadow=0;dashed=0;align=center;labelBorderColor=none;fillColor=#ffe6cc;strokeColor=#d79b00;" parent="254" vertex="1">
                    <mxGeometry x="510" y="224.5" width="160" height="100" as="geometry"/>
                </mxCell>
                <mxCell id="362" value="proper_name_id (PK)&#10;alias_id (PK)&#10;proper_first_name&#10;proper_last_name" style="align=left;strokeColor=none;fillColor=none;spacingLeft=4;fontSize=12;verticalAlign=top;resizable=0;rotatable=0;part=1;labelBorderColor=none;" parent="361" vertex="1">
                    <mxGeometry y="30" width="160" height="70" as="geometry"/>
                </mxCell>
                <mxCell id="363" value="Handle Name" style="swimlane;childLayout=stackLayout;horizontal=1;startSize=30;horizontalStack=0;rounded=1;fontSize=14;fontStyle=0;strokeWidth=2;resizeParent=0;resizeLast=1;shadow=0;dashed=0;align=center;labelBorderColor=none;fillColor=#ffe6cc;strokeColor=#d79b00;" parent="254" vertex="1">
                    <mxGeometry x="10" y="226" width="160" height="97" as="geometry"/>
                </mxCell>
                <mxCell id="364" value="handle_id (PK)&#10;alias_id (PK, FK)&#10;handle_name&#10;handle_source_id" style="align=left;strokeColor=none;fillColor=none;spacingLeft=4;fontSize=12;verticalAlign=top;resizable=0;rotatable=0;part=1;labelBorderColor=none;" parent="363" vertex="1">
                    <mxGeometry y="30" width="160" height="67" as="geometry"/>
                </mxCell>
                <mxCell id="375" value="Handle Source" style="swimlane;childLayout=stackLayout;horizontal=1;startSize=30;horizontalStack=0;rounded=1;fontSize=14;fontStyle=0;strokeWidth=2;resizeParent=0;resizeLast=1;shadow=0;dashed=0;align=center;labelBorderColor=none;fillColor=#ffe6cc;strokeColor=#d79b00;" parent="254" vertex="1">
                    <mxGeometry x="10" y="357" width="160" height="70" as="geometry"/>
                </mxCell>
                <mxCell id="376" value="handle_source_id (PK)&#10;handle_source_name" style="align=left;strokeColor=none;fillColor=none;spacingLeft=4;fontSize=12;verticalAlign=top;resizable=0;rotatable=0;part=1;labelBorderColor=none;" parent="375" vertex="1">
                    <mxGeometry y="30" width="160" height="40" as="geometry"/>
                </mxCell>
                <mxCell id="465" value="Alias Set" style="swimlane;childLayout=stackLayout;horizontal=1;startSize=30;horizontalStack=0;rounded=1;fontSize=14;fontStyle=0;strokeWidth=2;resizeParent=0;resizeLast=1;shadow=0;dashed=0;align=center;labelBorderColor=none;fillColor=#ffe6cc;strokeColor=#d79b00;" parent="254" vertex="1">
                    <mxGeometry x="265" y="43" width="160" height="86" as="geometry"/>
                </mxCell>
                <mxCell id="466" value="alias_set_id (PK, FK)&#10;alias_id (PK, FK)&#10;alias_set_create_datetime" style="align=left;strokeColor=none;fillColor=none;spacingLeft=4;fontSize=12;verticalAlign=top;resizable=0;rotatable=0;part=1;labelBorderColor=none;" parent="465" vertex="1">
                    <mxGeometry y="30" width="160" height="56" as="geometry"/>
                </mxCell>
                <mxCell id="349" value="Alias" style="swimlane;childLayout=stackLayout;horizontal=1;startSize=30;horizontalStack=0;rounded=1;fontSize=14;fontStyle=0;strokeWidth=2;resizeParent=0;resizeLast=1;shadow=0;dashed=0;align=center;labelBorderColor=none;fillColor=#ffe6cc;strokeColor=#d79b00;" parent="254" vertex="1">
                    <mxGeometry x="265" y="230" width="160" height="80" as="geometry"/>
                </mxCell>
                <mxCell id="350" value="alias_id (PK)&#10;alias_type_id (PK, FK)" style="align=left;strokeColor=none;fillColor=none;spacingLeft=4;fontSize=12;verticalAlign=top;resizable=0;rotatable=0;part=1;labelBorderColor=none;" parent="349" vertex="1">
                    <mxGeometry y="30" width="160" height="50" as="geometry"/>
                </mxCell>
                <mxCell id="347" value="Alias Type" style="swimlane;childLayout=stackLayout;horizontal=1;startSize=30;horizontalStack=0;rounded=1;fontSize=14;fontStyle=0;strokeWidth=2;resizeParent=0;resizeLast=1;shadow=0;dashed=0;align=center;labelBorderColor=none;fillColor=#ffe6cc;strokeColor=#d79b00;" parent="254" vertex="1">
                    <mxGeometry x="10" y="43" width="160" height="80" as="geometry"/>
                </mxCell>
                <mxCell id="348" value="alias_type_id (PK)&#10;alias_type_name&#10;" style="align=left;strokeColor=none;fillColor=none;spacingLeft=4;fontSize=12;verticalAlign=top;resizable=0;rotatable=0;part=1;labelBorderColor=none;" parent="347" vertex="1">
                    <mxGeometry y="30" width="160" height="50" as="geometry"/>
                </mxCell>
                <mxCell id="owKvPPOLDn9EPrUHpkWQ-542" value="Alias Image" style="swimlane;childLayout=stackLayout;horizontal=1;startSize=30;horizontalStack=0;rounded=1;fontSize=14;fontStyle=0;strokeWidth=2;resizeParent=0;resizeLast=1;shadow=0;dashed=0;align=center;labelBorderColor=none;fillColor=#ffe6cc;strokeColor=#d79b00;" parent="254" vertex="1">
                    <mxGeometry x="265" y="357" width="160" height="72" as="geometry"/>
                </mxCell>
                <mxCell id="owKvPPOLDn9EPrUHpkWQ-543" value="alias_id&#10;alias_img_path" style="align=left;strokeColor=none;fillColor=none;spacingLeft=4;fontSize=12;verticalAlign=top;resizable=0;rotatable=0;part=1;labelBorderColor=none;" parent="owKvPPOLDn9EPrUHpkWQ-542" vertex="1">
                    <mxGeometry y="30" width="160" height="42" as="geometry"/>
                </mxCell>
                <mxCell id="owKvPPOLDn9EPrUHpkWQ-571" value="" style="endArrow=none;html=1;rounded=0;entryX=0;entryY=0.25;entryDx=0;entryDy=0;exitX=1;exitY=0.25;exitDx=0;exitDy=0;" parent="254" source="466" target="355" edge="1">
                    <mxGeometry relative="1" as="geometry">
                        <mxPoint x="430" y="340" as="sourcePoint"/>
                        <mxPoint x="590" y="340" as="targetPoint"/>
                    </mxGeometry>
                </mxCell>
                <mxCell id="owKvPPOLDn9EPrUHpkWQ-572" value="" style="endArrow=none;html=1;rounded=0;exitX=0.5;exitY=1;exitDx=0;exitDy=0;entryX=0.5;entryY=0;entryDx=0;entryDy=0;" parent="254" source="466" target="349" edge="1">
                    <mxGeometry relative="1" as="geometry">
                        <mxPoint x="430" y="340" as="sourcePoint"/>
                        <mxPoint x="590" y="340" as="targetPoint"/>
                    </mxGeometry>
                </mxCell>
                <mxCell id="owKvPPOLDn9EPrUHpkWQ-607" value="" style="endArrow=none;html=1;rounded=0;entryX=0.5;entryY=0;entryDx=0;entryDy=0;exitX=0.5;exitY=1;exitDx=0;exitDy=0;" parent="254" source="364" target="375" edge="1">
                    <mxGeometry relative="1" as="geometry">
                        <mxPoint x="250" y="450" as="sourcePoint"/>
                        <mxPoint x="410" y="450" as="targetPoint"/>
                    </mxGeometry>
                </mxCell>
                <mxCell id="owKvPPOLDn9EPrUHpkWQ-611" value="" style="endArrow=none;html=1;rounded=0;exitX=1;exitY=0.25;exitDx=0;exitDy=0;entryX=0;entryY=0.25;entryDx=0;entryDy=0;" parent="254" source="364" target="350" edge="1">
                    <mxGeometry relative="1" as="geometry">
                        <mxPoint x="270" y="320" as="sourcePoint"/>
                        <mxPoint x="430" y="320" as="targetPoint"/>
                    </mxGeometry>
                </mxCell>
                <mxCell id="owKvPPOLDn9EPrUHpkWQ-612" value="" style="endArrow=none;html=1;rounded=0;entryX=0;entryY=0.25;entryDx=0;entryDy=0;exitX=1;exitY=0.25;exitDx=0;exitDy=0;" parent="254" source="350" target="362" edge="1">
                    <mxGeometry relative="1" as="geometry">
                        <mxPoint x="270" y="320" as="sourcePoint"/>
                        <mxPoint x="430" y="320" as="targetPoint"/>
                    </mxGeometry>
                </mxCell>
                <mxCell id="owKvPPOLDn9EPrUHpkWQ-640" value="" style="endArrow=none;html=1;rounded=0;exitX=0.5;exitY=1;exitDx=0;exitDy=0;entryX=0.25;entryY=0;entryDx=0;entryDy=0;" parent="254" source="348" target="349" edge="1">
                    <mxGeometry relative="1" as="geometry">
                        <mxPoint x="270" y="290" as="sourcePoint"/>
                        <mxPoint x="430" y="290" as="targetPoint"/>
                        <Array as="points">
                            <mxPoint x="90" y="180"/>
                            <mxPoint x="305" y="180"/>
                        </Array>
                    </mxGeometry>
                </mxCell>
                <mxCell id="owKvPPOLDn9EPrUHpkWQ-694" value="" style="endArrow=none;html=1;rounded=0;entryX=0.5;entryY=0;entryDx=0;entryDy=0;exitX=0.5;exitY=1;exitDx=0;exitDy=0;" parent="254" source="350" target="owKvPPOLDn9EPrUHpkWQ-542" edge="1">
                    <mxGeometry relative="1" as="geometry">
                        <mxPoint x="240" y="280" as="sourcePoint"/>
                        <mxPoint x="400" y="280" as="targetPoint"/>
                    </mxGeometry>
                </mxCell>
                <mxCell id="owKvPPOLDn9EPrUHpkWQ-695" value="Player" style="ellipse;whiteSpace=wrap;html=1;aspect=fixed;labelBorderColor=none;fillColor=#e1d5e7;strokeColor=#9673a6;" parent="1" vertex="1">
                    <mxGeometry x="-90" y="87" width="80" height="80" as="geometry"/>
                </mxCell>
                <mxCell id="owKvPPOLDn9EPrUHpkWQ-696" value="" style="endArrow=none;html=1;rounded=0;entryX=0;entryY=0.5;entryDx=0;entryDy=0;exitX=1;exitY=0.25;exitDx=0;exitDy=0;" parent="1" source="355" target="owKvPPOLDn9EPrUHpkWQ-695" edge="1">
                    <mxGeometry relative="1" as="geometry">
                        <mxPoint x="-400" y="410" as="sourcePoint"/>
                        <mxPoint x="-240" y="410" as="targetPoint"/>
                    </mxGeometry>
                </mxCell>
            </root>
        </mxGraphModel>
    </diagram>
    <diagram name="Copy of Page-1" id="vmAqCJuogV1vJBljSVPh">
        <mxGraphModel dx="1420" dy="788" grid="1" gridSize="10" guides="1" tooltips="1" connect="1" arrows="1" fold="1" page="1" pageScale="1" pageWidth="850" pageHeight="1100" math="0" shadow="0">
            <root>
                <mxCell id="feC3zABJMTbZ6vrxUANg-0"/>
                <mxCell id="feC3zABJMTbZ6vrxUANg-1" parent="feC3zABJMTbZ6vrxUANg-0"/>
                <mxCell id="feC3zABJMTbZ6vrxUANg-2" value="Games" style="shape=table;startSize=30;container=1;collapsible=1;childLayout=tableLayout;fixedRows=1;rowLines=0;fontStyle=1;align=center;resizeLast=1;" parent="feC3zABJMTbZ6vrxUANg-1" vertex="1">
                    <mxGeometry x="1220" y="570" width="180" height="300" as="geometry"/>
                </mxCell>
                <mxCell id="feC3zABJMTbZ6vrxUANg-3" value="" style="shape=tableRow;horizontal=0;startSize=0;swimlaneHead=0;swimlaneBody=0;fillColor=none;collapsible=0;dropTarget=0;points=[[0,0.5],[1,0.5]];portConstraint=eastwest;top=0;left=0;right=0;bottom=1;" parent="feC3zABJMTbZ6vrxUANg-2" vertex="1">
                    <mxGeometry y="30" width="180" height="30" as="geometry"/>
                </mxCell>
                <mxCell id="feC3zABJMTbZ6vrxUANg-4" value="PK" style="shape=partialRectangle;connectable=0;fillColor=none;top=0;left=0;bottom=0;right=0;fontStyle=1;overflow=hidden;" parent="feC3zABJMTbZ6vrxUANg-3" vertex="1">
                    <mxGeometry width="30" height="30" as="geometry">
                        <mxRectangle width="30" height="30" as="alternateBounds"/>
                    </mxGeometry>
                </mxCell>
                <mxCell id="feC3zABJMTbZ6vrxUANg-5" value="game_id" style="shape=partialRectangle;connectable=0;fillColor=none;top=0;left=0;bottom=0;right=0;align=left;spacingLeft=6;fontStyle=5;overflow=hidden;" parent="feC3zABJMTbZ6vrxUANg-3" vertex="1">
                    <mxGeometry x="30" width="150" height="30" as="geometry">
                        <mxRectangle width="150" height="30" as="alternateBounds"/>
                    </mxGeometry>
                </mxCell>
                <mxCell id="feC3zABJMTbZ6vrxUANg-6" value="" style="shape=tableRow;horizontal=0;startSize=0;swimlaneHead=0;swimlaneBody=0;fillColor=none;collapsible=0;dropTarget=0;points=[[0,0.5],[1,0.5]];portConstraint=eastwest;top=0;left=0;right=0;bottom=0;" parent="feC3zABJMTbZ6vrxUANg-2" vertex="1">
                    <mxGeometry y="60" width="180" height="30" as="geometry"/>
                </mxCell>
                <mxCell id="feC3zABJMTbZ6vrxUANg-7" value="FK" style="shape=partialRectangle;connectable=0;fillColor=none;top=0;left=0;bottom=0;right=0;editable=1;overflow=hidden;" parent="feC3zABJMTbZ6vrxUANg-6" vertex="1">
                    <mxGeometry width="30" height="30" as="geometry">
                        <mxRectangle width="30" height="30" as="alternateBounds"/>
                    </mxGeometry>
                </mxCell>
                <mxCell id="feC3zABJMTbZ6vrxUANg-8" value="whitePlayer_id" style="shape=partialRectangle;connectable=0;fillColor=none;top=0;left=0;bottom=0;right=0;align=left;spacingLeft=6;overflow=hidden;" parent="feC3zABJMTbZ6vrxUANg-6" vertex="1">
                    <mxGeometry x="30" width="150" height="30" as="geometry">
                        <mxRectangle width="150" height="30" as="alternateBounds"/>
                    </mxGeometry>
                </mxCell>
                <mxCell id="feC3zABJMTbZ6vrxUANg-9" value="" style="shape=tableRow;horizontal=0;startSize=0;swimlaneHead=0;swimlaneBody=0;fillColor=none;collapsible=0;dropTarget=0;points=[[0,0.5],[1,0.5]];portConstraint=eastwest;top=0;left=0;right=0;bottom=0;" parent="feC3zABJMTbZ6vrxUANg-2" vertex="1">
                    <mxGeometry y="90" width="180" height="30" as="geometry"/>
                </mxCell>
                <mxCell id="feC3zABJMTbZ6vrxUANg-10" value="FK" style="shape=partialRectangle;connectable=0;fillColor=none;top=0;left=0;bottom=0;right=0;editable=1;overflow=hidden;" parent="feC3zABJMTbZ6vrxUANg-9" vertex="1">
                    <mxGeometry width="30" height="30" as="geometry">
                        <mxRectangle width="30" height="30" as="alternateBounds"/>
                    </mxGeometry>
                </mxCell>
                <mxCell id="feC3zABJMTbZ6vrxUANg-11" value="blackPlayer_id" style="shape=partialRectangle;connectable=0;fillColor=none;top=0;left=0;bottom=0;right=0;align=left;spacingLeft=6;overflow=hidden;" parent="feC3zABJMTbZ6vrxUANg-9" vertex="1">
                    <mxGeometry x="30" width="150" height="30" as="geometry">
                        <mxRectangle width="150" height="30" as="alternateBounds"/>
                    </mxGeometry>
                </mxCell>
                <mxCell id="feC3zABJMTbZ6vrxUANg-12" value="" style="shape=tableRow;horizontal=0;startSize=0;swimlaneHead=0;swimlaneBody=0;fillColor=none;collapsible=0;dropTarget=0;points=[[0,0.5],[1,0.5]];portConstraint=eastwest;top=0;left=0;right=0;bottom=0;" parent="feC3zABJMTbZ6vrxUANg-2" vertex="1">
                    <mxGeometry y="120" width="180" height="30" as="geometry"/>
                </mxCell>
                <mxCell id="feC3zABJMTbZ6vrxUANg-13" value="FK" style="shape=partialRectangle;connectable=0;fillColor=none;top=0;left=0;bottom=0;right=0;editable=1;overflow=hidden;" parent="feC3zABJMTbZ6vrxUANg-12" vertex="1">
                    <mxGeometry width="30" height="30" as="geometry">
                        <mxRectangle width="30" height="30" as="alternateBounds"/>
                    </mxGeometry>
                </mxCell>
                <mxCell id="feC3zABJMTbZ6vrxUANg-14" value="event_id" style="shape=partialRectangle;connectable=0;fillColor=none;top=0;left=0;bottom=0;right=0;align=left;spacingLeft=6;overflow=hidden;" parent="feC3zABJMTbZ6vrxUANg-12" vertex="1">
                    <mxGeometry x="30" width="150" height="30" as="geometry">
                        <mxRectangle width="150" height="30" as="alternateBounds"/>
                    </mxGeometry>
                </mxCell>
                <mxCell id="feC3zABJMTbZ6vrxUANg-15" style="shape=tableRow;horizontal=0;startSize=0;swimlaneHead=0;swimlaneBody=0;fillColor=none;collapsible=0;dropTarget=0;points=[[0,0.5],[1,0.5]];portConstraint=eastwest;top=0;left=0;right=0;bottom=0;" parent="feC3zABJMTbZ6vrxUANg-2" vertex="1">
                    <mxGeometry y="150" width="180" height="30" as="geometry"/>
                </mxCell>
                <mxCell id="feC3zABJMTbZ6vrxUANg-16" value="FK" style="shape=partialRectangle;connectable=0;fillColor=none;top=0;left=0;bottom=0;right=0;editable=1;overflow=hidden;" parent="feC3zABJMTbZ6vrxUANg-15" vertex="1">
                    <mxGeometry width="30" height="30" as="geometry">
                        <mxRectangle width="30" height="30" as="alternateBounds"/>
                    </mxGeometry>
                </mxCell>
                <mxCell id="feC3zABJMTbZ6vrxUANg-17" value="result_id" style="shape=partialRectangle;connectable=0;fillColor=none;top=0;left=0;bottom=0;right=0;align=left;spacingLeft=6;overflow=hidden;" parent="feC3zABJMTbZ6vrxUANg-15" vertex="1">
                    <mxGeometry x="30" width="150" height="30" as="geometry">
                        <mxRectangle width="150" height="30" as="alternateBounds"/>
                    </mxGeometry>
                </mxCell>
                <mxCell id="feC3zABJMTbZ6vrxUANg-18" style="shape=tableRow;horizontal=0;startSize=0;swimlaneHead=0;swimlaneBody=0;fillColor=none;collapsible=0;dropTarget=0;points=[[0,0.5],[1,0.5]];portConstraint=eastwest;top=0;left=0;right=0;bottom=0;" parent="feC3zABJMTbZ6vrxUANg-2" vertex="1">
                    <mxGeometry y="180" width="180" height="30" as="geometry"/>
                </mxCell>
                <mxCell id="feC3zABJMTbZ6vrxUANg-19" value="FK" style="shape=partialRectangle;connectable=0;fillColor=none;top=0;left=0;bottom=0;right=0;editable=1;overflow=hidden;" parent="feC3zABJMTbZ6vrxUANg-18" vertex="1">
                    <mxGeometry width="30" height="30" as="geometry">
                        <mxRectangle width="30" height="30" as="alternateBounds"/>
                    </mxGeometry>
                </mxCell>
                <mxCell id="feC3zABJMTbZ6vrxUANg-20" value="eco_id" style="shape=partialRectangle;connectable=0;fillColor=none;top=0;left=0;bottom=0;right=0;align=left;spacingLeft=6;overflow=hidden;labelBorderColor=none;" parent="feC3zABJMTbZ6vrxUANg-18" vertex="1">
                    <mxGeometry x="30" width="150" height="30" as="geometry">
                        <mxRectangle width="150" height="30" as="alternateBounds"/>
                    </mxGeometry>
                </mxCell>
                <mxCell id="feC3zABJMTbZ6vrxUANg-21" style="shape=tableRow;horizontal=0;startSize=0;swimlaneHead=0;swimlaneBody=0;fillColor=none;collapsible=0;dropTarget=0;points=[[0,0.5],[1,0.5]];portConstraint=eastwest;top=0;left=0;right=0;bottom=0;" parent="feC3zABJMTbZ6vrxUANg-2" vertex="1">
                    <mxGeometry y="210" width="180" height="30" as="geometry"/>
                </mxCell>
                <mxCell id="feC3zABJMTbZ6vrxUANg-22" style="shape=partialRectangle;connectable=0;fillColor=none;top=0;left=0;bottom=0;right=0;editable=1;overflow=hidden;" parent="feC3zABJMTbZ6vrxUANg-21" vertex="1">
                    <mxGeometry width="30" height="30" as="geometry">
                        <mxRectangle width="30" height="30" as="alternateBounds"/>
                    </mxGeometry>
                </mxCell>
                <mxCell id="feC3zABJMTbZ6vrxUANg-23" value="game_time_control" style="shape=partialRectangle;connectable=0;fillColor=none;top=0;left=0;bottom=0;right=0;align=left;spacingLeft=6;overflow=hidden;" parent="feC3zABJMTbZ6vrxUANg-21" vertex="1">
                    <mxGeometry x="30" width="150" height="30" as="geometry">
                        <mxRectangle width="150" height="30" as="alternateBounds"/>
                    </mxGeometry>
                </mxCell>
                <mxCell id="feC3zABJMTbZ6vrxUANg-24" style="shape=tableRow;horizontal=0;startSize=0;swimlaneHead=0;swimlaneBody=0;fillColor=none;collapsible=0;dropTarget=0;points=[[0,0.5],[1,0.5]];portConstraint=eastwest;top=0;left=0;right=0;bottom=0;" parent="feC3zABJMTbZ6vrxUANg-2" vertex="1">
                    <mxGeometry y="240" width="180" height="30" as="geometry"/>
                </mxCell>
                <mxCell id="feC3zABJMTbZ6vrxUANg-25" style="shape=partialRectangle;connectable=0;fillColor=none;top=0;left=0;bottom=0;right=0;editable=1;overflow=hidden;" parent="feC3zABJMTbZ6vrxUANg-24" vertex="1">
                    <mxGeometry width="30" height="30" as="geometry">
                        <mxRectangle width="30" height="30" as="alternateBounds"/>
                    </mxGeometry>
                </mxCell>
                <mxCell id="feC3zABJMTbZ6vrxUANg-26" value="game_date" style="shape=partialRectangle;connectable=0;fillColor=none;top=0;left=0;bottom=0;right=0;align=left;spacingLeft=6;overflow=hidden;" parent="feC3zABJMTbZ6vrxUANg-24" vertex="1">
                    <mxGeometry x="30" width="150" height="30" as="geometry">
                        <mxRectangle width="150" height="30" as="alternateBounds"/>
                    </mxGeometry>
                </mxCell>
                <mxCell id="feC3zABJMTbZ6vrxUANg-27" style="shape=tableRow;horizontal=0;startSize=0;swimlaneHead=0;swimlaneBody=0;fillColor=none;collapsible=0;dropTarget=0;points=[[0,0.5],[1,0.5]];portConstraint=eastwest;top=0;left=0;right=0;bottom=0;" parent="feC3zABJMTbZ6vrxUANg-2" vertex="1">
                    <mxGeometry y="270" width="180" height="30" as="geometry"/>
                </mxCell>
                <mxCell id="feC3zABJMTbZ6vrxUANg-28" style="shape=partialRectangle;connectable=0;fillColor=none;top=0;left=0;bottom=0;right=0;editable=1;overflow=hidden;" parent="feC3zABJMTbZ6vrxUANg-27" vertex="1">
                    <mxGeometry width="30" height="30" as="geometry">
                        <mxRectangle width="30" height="30" as="alternateBounds"/>
                    </mxGeometry>
                </mxCell>
                <mxCell id="feC3zABJMTbZ6vrxUANg-29" value="game_end_time" style="shape=partialRectangle;connectable=0;fillColor=none;top=0;left=0;bottom=0;right=0;align=left;spacingLeft=6;overflow=hidden;" parent="feC3zABJMTbZ6vrxUANg-27" vertex="1">
                    <mxGeometry x="30" width="150" height="30" as="geometry">
                        <mxRectangle width="150" height="30" as="alternateBounds"/>
                    </mxGeometry>
                </mxCell>
                <mxCell id="feC3zABJMTbZ6vrxUANg-30" value="Event" style="shape=table;startSize=30;container=1;collapsible=1;childLayout=tableLayout;fixedRows=1;rowLines=0;fontStyle=1;align=center;resizeLast=1;labelBorderColor=none;" parent="feC3zABJMTbZ6vrxUANg-1" vertex="1">
                    <mxGeometry x="1060" y="400" width="180" height="150" as="geometry"/>
                </mxCell>
                <mxCell id="feC3zABJMTbZ6vrxUANg-31" value="" style="shape=tableRow;horizontal=0;startSize=0;swimlaneHead=0;swimlaneBody=0;fillColor=none;collapsible=0;dropTarget=0;points=[[0,0.5],[1,0.5]];portConstraint=eastwest;top=0;left=0;right=0;bottom=1;labelBorderColor=none;" parent="feC3zABJMTbZ6vrxUANg-30" vertex="1">
                    <mxGeometry y="30" width="180" height="30" as="geometry"/>
                </mxCell>
                <mxCell id="feC3zABJMTbZ6vrxUANg-32" value="PK" style="shape=partialRectangle;connectable=0;fillColor=none;top=0;left=0;bottom=0;right=0;fontStyle=1;overflow=hidden;labelBorderColor=none;" parent="feC3zABJMTbZ6vrxUANg-31" vertex="1">
                    <mxGeometry width="30" height="30" as="geometry">
                        <mxRectangle width="30" height="30" as="alternateBounds"/>
                    </mxGeometry>
                </mxCell>
                <mxCell id="feC3zABJMTbZ6vrxUANg-33" value="event_id" style="shape=partialRectangle;connectable=0;fillColor=none;top=0;left=0;bottom=0;right=0;align=left;spacingLeft=6;fontStyle=5;overflow=hidden;labelBorderColor=none;" parent="feC3zABJMTbZ6vrxUANg-31" vertex="1">
                    <mxGeometry x="30" width="150" height="30" as="geometry">
                        <mxRectangle width="150" height="30" as="alternateBounds"/>
                    </mxGeometry>
                </mxCell>
                <mxCell id="feC3zABJMTbZ6vrxUANg-34" value="" style="shape=tableRow;horizontal=0;startSize=0;swimlaneHead=0;swimlaneBody=0;fillColor=none;collapsible=0;dropTarget=0;points=[[0,0.5],[1,0.5]];portConstraint=eastwest;top=0;left=0;right=0;bottom=0;labelBorderColor=none;" parent="feC3zABJMTbZ6vrxUANg-30" vertex="1">
                    <mxGeometry y="60" width="180" height="30" as="geometry"/>
                </mxCell>
                <mxCell id="feC3zABJMTbZ6vrxUANg-35" value="" style="shape=partialRectangle;connectable=0;fillColor=none;top=0;left=0;bottom=0;right=0;editable=1;overflow=hidden;labelBorderColor=none;" parent="feC3zABJMTbZ6vrxUANg-34" vertex="1">
                    <mxGeometry width="30" height="30" as="geometry">
                        <mxRectangle width="30" height="30" as="alternateBounds"/>
                    </mxGeometry>
                </mxCell>
                <mxCell id="feC3zABJMTbZ6vrxUANg-36" value="event_name" style="shape=partialRectangle;connectable=0;fillColor=none;top=0;left=0;bottom=0;right=0;align=left;spacingLeft=6;overflow=hidden;labelBorderColor=none;" parent="feC3zABJMTbZ6vrxUANg-34" vertex="1">
                    <mxGeometry x="30" width="150" height="30" as="geometry">
                        <mxRectangle width="150" height="30" as="alternateBounds"/>
                    </mxGeometry>
                </mxCell>
                <mxCell id="feC3zABJMTbZ6vrxUANg-37" value="" style="shape=tableRow;horizontal=0;startSize=0;swimlaneHead=0;swimlaneBody=0;fillColor=none;collapsible=0;dropTarget=0;points=[[0,0.5],[1,0.5]];portConstraint=eastwest;top=0;left=0;right=0;bottom=0;labelBorderColor=none;" parent="feC3zABJMTbZ6vrxUANg-30" vertex="1">
                    <mxGeometry y="90" width="180" height="30" as="geometry"/>
                </mxCell>
                <mxCell id="feC3zABJMTbZ6vrxUANg-38" value="" style="shape=partialRectangle;connectable=0;fillColor=none;top=0;left=0;bottom=0;right=0;editable=1;overflow=hidden;labelBorderColor=none;" parent="feC3zABJMTbZ6vrxUANg-37" vertex="1">
                    <mxGeometry width="30" height="30" as="geometry">
                        <mxRectangle width="30" height="30" as="alternateBounds"/>
                    </mxGeometry>
                </mxCell>
                <mxCell id="feC3zABJMTbZ6vrxUANg-39" value="event_site" style="shape=partialRectangle;connectable=0;fillColor=none;top=0;left=0;bottom=0;right=0;align=left;spacingLeft=6;overflow=hidden;labelBorderColor=none;" parent="feC3zABJMTbZ6vrxUANg-37" vertex="1">
                    <mxGeometry x="30" width="150" height="30" as="geometry">
                        <mxRectangle width="150" height="30" as="alternateBounds"/>
                    </mxGeometry>
                </mxCell>
                <mxCell id="feC3zABJMTbZ6vrxUANg-40" value="" style="shape=tableRow;horizontal=0;startSize=0;swimlaneHead=0;swimlaneBody=0;fillColor=none;collapsible=0;dropTarget=0;points=[[0,0.5],[1,0.5]];portConstraint=eastwest;top=0;left=0;right=0;bottom=0;labelBorderColor=none;" parent="feC3zABJMTbZ6vrxUANg-30" vertex="1">
                    <mxGeometry y="120" width="180" height="30" as="geometry"/>
                </mxCell>
                <mxCell id="feC3zABJMTbZ6vrxUANg-41" value="" style="shape=partialRectangle;connectable=0;fillColor=none;top=0;left=0;bottom=0;right=0;editable=1;overflow=hidden;labelBorderColor=none;" parent="feC3zABJMTbZ6vrxUANg-40" vertex="1">
                    <mxGeometry width="30" height="30" as="geometry">
                        <mxRectangle width="30" height="30" as="alternateBounds"/>
                    </mxGeometry>
                </mxCell>
                <mxCell id="feC3zABJMTbZ6vrxUANg-42" value="event_round" style="shape=partialRectangle;connectable=0;fillColor=none;top=0;left=0;bottom=0;right=0;align=left;spacingLeft=6;overflow=hidden;labelBorderColor=none;" parent="feC3zABJMTbZ6vrxUANg-40" vertex="1">
                    <mxGeometry x="30" width="150" height="30" as="geometry">
                        <mxRectangle width="150" height="30" as="alternateBounds"/>
                    </mxGeometry>
                </mxCell>
                <mxCell id="IKOAZYbKuyzVhrO0zug2-0" value="Alias Rating" style="swimlane;childLayout=stackLayout;horizontal=1;startSize=30;horizontalStack=0;rounded=1;fontSize=14;fontStyle=0;strokeWidth=2;resizeParent=0;resizeLast=1;shadow=0;dashed=0;align=center;labelBorderColor=none;" parent="feC3zABJMTbZ6vrxUANg-1" vertex="1">
                    <mxGeometry x="240" y="40" width="160" height="140" as="geometry"/>
                </mxCell>
                <mxCell id="IKOAZYbKuyzVhrO0zug2-1" value="alias_id&#10;rating_id" style="align=left;strokeColor=none;fillColor=none;spacingLeft=4;fontSize=12;verticalAlign=top;resizable=0;rotatable=0;part=1;labelBorderColor=none;" parent="IKOAZYbKuyzVhrO0zug2-0" vertex="1">
                    <mxGeometry y="30" width="160" height="110" as="geometry"/>
                </mxCell>
                <mxCell id="IKOAZYbKuyzVhrO0zug2-2" value="Player Rating" style="swimlane;childLayout=stackLayout;horizontal=1;startSize=30;horizontalStack=0;rounded=1;fontSize=14;fontStyle=0;strokeWidth=2;resizeParent=0;resizeLast=1;shadow=0;dashed=0;align=center;labelBorderColor=none;" parent="feC3zABJMTbZ6vrxUANg-1" vertex="1">
                    <mxGeometry x="480" y="40" width="160" height="110" as="geometry"/>
                </mxCell>
                <mxCell id="IKOAZYbKuyzVhrO0zug2-3" value="rating_id&#10;rating_type_id&#10;rating_value&#10;rating_update_type_id&#10;rating_update_datetime" style="align=left;strokeColor=none;fillColor=none;spacingLeft=4;fontSize=12;verticalAlign=top;resizable=0;rotatable=0;part=1;labelBorderColor=none;" parent="IKOAZYbKuyzVhrO0zug2-2" vertex="1">
                    <mxGeometry y="30" width="160" height="80" as="geometry"/>
                </mxCell>
                <mxCell id="IKOAZYbKuyzVhrO0zug2-7" value="Rating Type" style="swimlane;childLayout=stackLayout;horizontal=1;startSize=30;horizontalStack=0;rounded=1;fontSize=14;fontStyle=0;strokeWidth=2;resizeParent=0;resizeLast=1;shadow=0;dashed=0;align=center;labelBorderColor=none;" parent="feC3zABJMTbZ6vrxUANg-1" vertex="1">
                    <mxGeometry x="680" y="40" width="160" height="70" as="geometry"/>
                </mxCell>
                <mxCell id="IKOAZYbKuyzVhrO0zug2-8" value="rating_type_id&#10;rating_type_name" style="align=left;strokeColor=none;fillColor=none;spacingLeft=4;fontSize=12;verticalAlign=top;resizable=0;rotatable=0;part=1;labelBorderColor=none;" parent="IKOAZYbKuyzVhrO0zug2-7" vertex="1">
                    <mxGeometry y="30" width="160" height="40" as="geometry"/>
                </mxCell>
                <mxCell id="IKOAZYbKuyzVhrO0zug2-9" value="Rating Update Type" style="swimlane;childLayout=stackLayout;horizontal=1;startSize=30;horizontalStack=0;rounded=1;fontSize=14;fontStyle=0;strokeWidth=2;resizeParent=0;resizeLast=1;shadow=0;dashed=0;align=center;labelBorderColor=none;" parent="feC3zABJMTbZ6vrxUANg-1" vertex="1">
                    <mxGeometry x="480" y="210" width="160" height="70" as="geometry"/>
                </mxCell>
                <mxCell id="IKOAZYbKuyzVhrO0zug2-10" value="rating_update_type_id&#10;ratind_update_type_name&#10;" style="align=left;strokeColor=none;fillColor=none;spacingLeft=4;fontSize=12;verticalAlign=top;resizable=0;rotatable=0;part=1;labelBorderColor=none;" parent="IKOAZYbKuyzVhrO0zug2-9" vertex="1">
                    <mxGeometry y="30" width="160" height="40" as="geometry"/>
                </mxCell>
            </root>
        </mxGraphModel>
    </diagram>
</mxfile>